<svg xmlns="http://www.w3.org/2000/svg" width="315" height="156.24" viewBox="0 0 315 156.24"><path d="M288.782,334.637q-1.863,1.761-3.837,3.4t-4.075,3.161a78.12,78.12,0,1,1,0-126.566,88.329,88.329,0,0,0-24.486,43.295,29.2,29.2,0,1,0,0,39.975,29.465,29.465,0,0,0,4.091-5.524,28.988,28.988,0,0,0,3.848-14.462,77.915,77.915,0,0,1,24.46-56.72q1.863-1.768,3.838-3.406c1.32-1.1,2.684-2.147,4.075-3.158A77.826,77.826,0,0,1,342.889,199.8l-.012,47.8a3.256,3.256,0,0,1-.98.62,12.886,12.886,0,0,1-2.681.674,29.157,29.157,0,0,0-18.036,9.037,29.755,29.755,0,0,0-4.091,5.523,29.047,29.047,0,0,0-3.848,14.467,77.919,77.919,0,0,1-24.461,56.718Zm64.883-72.2a5.536,5.536,0,0,1-1.021-1.06,1.708,1.708,0,0,1-.068-1.928,1.808,1.808,0,0,1,1.685-.951,2.648,2.648,0,0,1,.911.144,10.34,10.34,0,0,1,1.845.839,19.556,19.556,0,0,1,6.567,6.921,8.221,8.221,0,0,1,1.1,3.759c-.075.477,0,1.089-.639,1.359-.457.194-.943,0-1.352-.688a23.13,23.13,0,0,0-6.943-6.849c-.707-.5-1.41-1-2.084-1.546ZM472,199.8l-18.161,50.419H430.661v27.7c-.025.742.007,1.485,0,2.234a76.5,76.5,0,0,1-74.526,75.836l-3.831.049V333.049l1.4-.61a5.584,5.584,0,0,0,2.817-2.31,3.42,3.42,0,0,1,3.262-1.726c2,.014,2.371-.362,2.752-2.253.357-2.074.625-3.792.978-5.487a5.766,5.766,0,0,0-.713-4.464c-1.565-2.456-3.117-4.92-4.755-7.325-1.125-1.644-1.717-1.731-3.255-.345l1.413,2.616c1.119,1.56,2.256,3.112,3.336,4.7a4.405,4.405,0,0,1,.758,1.673,10.778,10.778,0,0,1-1.153,7.018c-.15.272-.528.418-.87.671a4.469,4.469,0,0,1-.452-.946,9.385,9.385,0,0,1-.148-1.663,8.456,8.456,0,0,0-1.96-5.475c-1.588-1.981-3.07-4.051-4.561-6.107a4.168,4.168,0,0,1,.5-5.847c.746-.739,1.542-1.435,2.324-2.144a8.685,8.685,0,0,0,2.366-3.51,25.515,25.515,0,0,0,.973-3.194,35.1,35.1,0,0,0,.725-8.132l.017-2.045a1.887,1.887,0,0,1,.55-1.337,1.191,1.191,0,0,1,1.916.153,4.434,4.434,0,0,1,.571,1.356,21.772,21.772,0,0,1,.559,7.193,45.976,45.976,0,0,1-1.875,8.9,3.541,3.541,0,0,0-.357,1.858,11.677,11.677,0,0,0,1.316-.005c.86-.1,1.714-.279,2.574-.379a11.825,11.825,0,0,0,7.542-3.6c.939-.985,1.974-1.882,2.966-2.82a1.145,1.145,0,0,1,1.974,1.084,10.08,10.08,0,0,1-.7,2.106,29.51,29.51,0,0,1-1.806,3.248,35.107,35.107,0,0,0-3.555,6.921c-.564,1.51-1.206,2.988-1.731,4.508s-.156,1.955,1.4,1.763c1.223-.153,1.563.11,1.644,1.332.032.491-.014.992,0,1.485a11.4,11.4,0,0,0,.09,1.67,3.766,3.766,0,0,0,4.921,2.852,25.079,25.079,0,0,0,2.845-1.356c.71-.379,1.371-.848,2.052-1.279a13.68,13.68,0,0,1,6.26-2.159,24.22,24.22,0,0,1,2.788-.046,4.68,4.68,0,0,0,3.917-1.757,18.419,18.419,0,0,1,1.79-1.884,2.257,2.257,0,0,1,3.2-.265c1,.617,1.954,1.317,2.917,1.993a25.835,25.835,0,0,0,4.836,2.754,9.918,9.918,0,0,0,4.882.882,4.765,4.765,0,0,0,.81-.274c-.4-.372-.642-.632-.921-.846-.785-.6-1.638-1.135-2.37-1.8a33.217,33.217,0,0,1-3.012-3.017c-1.167-1.362-2.224-2.82-3.309-4.254a30.155,30.155,0,0,1-1.821-2.577,3.647,3.647,0,0,1-.445-1.568,1,1,0,0,1,1.393-1,4.525,4.525,0,0,1,1.412.854c1.461,1.337,2.891,2.716,4.308,4.1.885.866,1.7,1.809,2.6,2.662a9.283,9.283,0,0,0,3.573,2.285,5.292,5.292,0,0,0,4.2-.265c.207-.257-.956-.788-.956-.788a25.3,25.3,0,0,1-9.43-8.288,46.82,46.82,0,0,1-4.447-7.93c-1.464-3.221-2.528-6.59-3.715-9.912-1.439-4.023-2.891-8.042-4.408-12.036a25.937,25.937,0,0,0-4.344-7.106,39.1,39.1,0,0,0-8.217-7.218,107.861,107.861,0,0,0-9.589-5.676c-5.416-3.005-11.081-5.55-16.284-8.934a14.414,14.414,0,0,0-1.738-.911,15.027,15.027,0,0,0-1.634-.538l-.894-.163V199.8ZM386.355,310.284a1.16,1.16,0,0,1,1.546,1.111c.046.367.049.739.065.912,0,2.456-.69,3.632-3.606,3.848-1.22-.082-1.582-.4-1.692-1.024a3.728,3.728,0,0,1,1.507-3.9,6.888,6.888,0,0,1,2.181-.946Zm4.529-12.046a6.478,6.478,0,0,0-2.337-3.273c-.939-.707-1.881-1.417-2.852-2.072a6.882,6.882,0,0,0-1.342-.618,1.19,1.19,0,0,0-1.481.443c-.338.438-.622.924-.96,1.366a1.419,1.419,0,0,1-1.656.508,1.353,1.353,0,0,1-.943-1.439,3.37,3.37,0,0,1,.061-.927,15.092,15.092,0,0,1,2.692-5.662,3.827,3.827,0,0,1,.666-.639,1.356,1.356,0,0,1,1.857.029,75.483,75.483,0,0,0,6.143,5.672c2.183,1.77,2.776,4.3,3.155,6.873a5.978,5.978,0,0,1-.185.961,1.259,1.259,0,0,1-2.124.292,8.508,8.508,0,0,1-.693-1.514ZM345.7,321.379a24.553,24.553,0,0,0-4.746.737,9.622,9.622,0,0,0,1.092,3.776,1.648,1.648,0,0,0,2.059,1.157,5.037,5.037,0,0,0,1.746-.545,2.424,2.424,0,0,0,1.181-2.852,4.686,4.686,0,0,0-1.332-2.273Zm-6.477,15.214a3.209,3.209,0,0,0,3.651.911v18.535a19.283,19.283,0,0,0-2.169-.036,77.685,77.685,0,0,1-44.013-14.8,88.09,88.09,0,0,0,18.651-25.881,73.148,73.148,0,0,0,11-.511c2.4-.279,3.822-.3,6.236-.387.977-.041,2.723-.615,2.465-2.428a19.8,19.8,0,0,0-1.2-3.727,1.1,1.1,0,0,1,1.908-1.067c.4.625,1.259,2.659,1.553,3.342a10.923,10.923,0,0,0,3.216,3.654,12.252,12.252,0,0,0,3.1,1.646,16.779,16.779,0,0,1,5.927,3.754,14.211,14.211,0,0,1,1.459,1.682c1.544,2.023,1.977,3.026-.165,5.453a11.329,11.329,0,0,1-7.152,3.922,3.641,3.641,0,0,1-4.245-2.224c-.15-.338-.335-.663-.517-.989-.369-.642-.719-1.3-1.128-1.92a2.45,2.45,0,0,0-2.528-1.215c-1.773.272-3.547.547-5.307.887-.3.056-1.033.542-.839.691a26.22,26.22,0,0,0,3.173,4.447,2.544,2.544,0,0,0,2.134.907c1.731-.068,1.792,0,2.5,1.559a24.087,24.087,0,0,0,1.067,2.163,9.2,9.2,0,0,0,1.218,1.631Z" transform="translate(-157 -199.798)" fill="#00172e"/></svg>