<svg xmlns="http://www.w3.org/2000/svg" width="315" height="71.308" viewBox="0 0 315 71.308"><path d="M318.246,210.482a10.914,10.914,0,0,1-3.276-.491c-38.626-10.537-42.917-11.707-43.427-11.854l0,0c-8.525-2.571-10.205-5.371-11.516-8.763a3.987,3.987,0,0,0-2.224-2.274l-53.1-15.59c-2.265-.7-3.582-1.381-4.511-3.179-2.91-5.125-2.915-5.135-2.923-5.149a2.067,2.067,0,0,0-1.505-1.1c-4.276-.576-5.533-2.97-6.069-3.993l-2.362-4.143a2.1,2.1,0,0,0-1.454-1.157c-2.425-.159-3.655-.815-4.682-2.506l-2.323-3.867c-1.265-2.332-.817-4.008-.222-5.007A4.895,4.895,0,0,1,183,139.174H309.971a12.193,12.193,0,0,1,8.992,3.385,12.51,12.51,0,0,1,3.283,6.2c.02.027.217.178.771.178h25.092c.562,0,.753-.155.779-.214a12.44,12.44,0,0,1,3.274-6.159,12.193,12.193,0,0,1,8.993-3.387H488.1a5.084,5.084,0,0,1,4.382,2.244v0a4.156,4.156,0,0,1,.582,2.152,5.953,5.953,0,0,1-.795,2.825l-2.339,3.893c-1.028,1.689-2.255,2.343-4.688,2.5a2.114,2.114,0,0,0-1.448,1.158l-2.368,4.155c-.53,1.01-1.79,3.4-6.1,3.983a2.088,2.088,0,0,0-1.5,1.146l-2.906,5.119c-.919,1.78-2.241,2.465-4.512,3.165l-53.09,15.587a3.851,3.851,0,0,0-2.223,2.274c-1.219,3.262-2.927,6.173-11.507,8.76-.006,0-.022.007-21.737,5.932l-19.836,5.412c-1.019.278-1.549.423-1.847.477l.008.023c-.584.194-5.816,1.786-9.771-2.03-10.145-9.68-10.188-9.723-10.2-9.738h0a1.075,1.075,0,0,0-.646-.279,1.058,1.058,0,0,0-.64.275l-.015.014c-.1.1-10.085,9.624-10.185,9.722h0A9.107,9.107,0,0,1,318.246,210.482Zm21.847-13.168,7.049,6.724a17.3,17.3,0,0,0,2.572,2.277,8.954,8.954,0,0,1-.831-2.154l-2.046-7.376C344.626,197.036,342.365,197.214,340.093,197.314Zm-15.806-.525-2.049,7.392a8.909,8.909,0,0,1-.822,2.124,5.572,5.572,0,0,0,.991-.762l0,0,8.624-8.227C328.753,197.214,326.491,197.038,324.287,196.79Zm25.37-.368,1.967,7.1a5.078,5.078,0,0,0,1.843,2.91,2.767,2.767,0,0,0,2.133.255l10.061-2.745a11.946,11.946,0,0,1-1.819-2.431l-4.192-7.1A91.6,91.6,0,0,1,349.656,196.422Zm-44.192,7.519,10.07,2.748a2.764,2.764,0,0,0,2.125-.257,5.119,5.119,0,0,0,1.839-2.895l.006-.025,1.963-7.084a91.461,91.461,0,0,1-10-2.008l-2.485,4.206-1.693,2.866A12.121,12.121,0,0,1,305.465,203.941Zm56.992-10.308,3.827,6.48c.587,1.056,2.1,2.943,3.1,2.81l11.414-3.114a11.059,11.059,0,0,1-1.428-1.217l-7.854-8.192A87.156,87.156,0,0,1,362.456,193.633Zm-60.721,9.29c1.023.123,2.528-1.769,3.113-2.821l3.818-6.462a87.073,87.073,0,0,1-9.06-3.241l-7.224,7.534c-.285.3-.486.507-.64.643l.013.012a10.874,10.874,0,0,1-1.432,1.222Zm-16.091-4.39c1.514.349,3.5-1.286,4.075-1.889l7.15-7.456c-2.426-1.122-4.839-2.38-7.188-3.744l-13.472,9.643a9.288,9.288,0,0,1-.946.614Zm88.613-9.342,7.148,7.455c.578.6,2.575,2.245,4.083,1.886l10.372-2.829a9.831,9.831,0,0,1-.933-.6l-13.482-9.651C379.112,186.8,376.7,188.06,374.258,189.19Zm-37.288-17.4v22.8c3.075-.043,6.134-.229,9.1-.552l-6.168-22.244Zm-11.919,22.242c2.988.323,6.047.509,9.105.552V171.795H331.22Zm-55.1.055c2,.618,4.484-1.193,4.589-1.271l12.516-8.959c-2.546-1.6-5.056-3.359-7.474-5.239l-13.874,6.492c-.277.13-.488.229-.655.291l.006.012a14.852,14.852,0,0,1-2.852,1.048,7.623,7.623,0,0,1,.959,1.8C263.9,190.138,264.669,192.1,269.954,194.091Zm114.112-10.23,12.527,8.968c.037.027,2.549,1.885,4.576,1.262,5.284-1.992,6.053-3.953,6.793-5.848a7.718,7.718,0,0,1,.952-1.776,14.837,14.837,0,0,1-2.826-1.036l-14.547-6.807C389.142,180.49,386.631,182.249,384.067,183.861Zm-41.241-12.067,6.072,21.892a88.918,88.918,0,0,0,9.26-1.8l-11.869-20.094Zm-29.86,20.1a88.772,88.772,0,0,0,9.262,1.795l6.073-21.893h-3.462C323.127,174.692,317.415,184.363,312.966,191.893ZM301.7,188.213a84.43,84.43,0,0,0,8.443,2.92l11.424-19.339h-4.122Zm47.853-16.418,11.422,19.335a84.621,84.621,0,0,0,8.447-2.913l-15.747-16.422Zm8.021,0,14.615,15.241c2.286-1.027,4.547-2.166,6.735-3.394l-16.55-11.847ZM292.2,183.641c2.2,1.232,4.46,2.37,6.737,3.391l14.612-15.237h-4.8C306.654,173.3,299.357,178.519,292.2,183.641Zm101.781-6.983,13.345,6.246c.8.406,3.427,1.441,5.109.985l13-3.818-26.241-8.1C397.512,173.6,395.76,175.176,393.981,176.658ZM258.7,183.891c1.5.4,3.936-.394,5.117-.993l13.333-6.241c-1.77-1.474-3.521-3.046-5.216-4.682l-26.243,8.1,3.856,1.132Zm108.514-12.1,14.375,10.291c2.426-1.481,4.8-3.1,7.081-4.808l-11.715-5.483Zm-84.749,5.483c2.3,1.728,4.676,3.342,7.081,4.807l14.374-10.29h-9.742Zm-43.979.677c2.533.669,5.888-.419,6.029-.465l25.165-7.764c-.982-1.011-1.959-2.061-2.915-3.131l-39.171,8.048c-.076.015-.16.033-.244.042Zm188.063-.487.091.028c.145.048,3.482,1.132,6.02.455l11.109-3.262L404.372,166.6c-.94,1.052-1.918,2.1-2.919,3.13Zm-42.957-5.673,7.564,3.54c.682-.559,2.7-2.228,4.148-3.54Zm-107.724,0c1.444,1.285,3.438,2.972,4.112,3.538l7.56-3.538Zm168.5.146c1.294.269,5.445.916,7.471.38l10.367-3.044-53.987-7.241c-.562.707-1.143,1.417-1.734,2.122l13.023,2.676c20.345,4.18,24.109,4.953,24.853,5.132Zm-225.054.385c2.038.529,6.166-.117,7.453-.386l37.886-7.783c-.564-.673-1.136-1.374-1.732-2.122l-53.992,7.242Zm54.6-20.351v17.5l123.725-.006,0-17.492ZM400.123,165.49v2.332c.133-.143,1.7-1.815,1.826-1.956Zm-130.5.374,1.81,1.942v-2.314ZM203,166.521c.1.1.665.623,2.466.382l55.469-7.44c-.513-.688-1.026-1.391-1.53-2.1-4.093.273-52.233,3.48-59.356,3.96.059.1.114.194.167.3Zm207.2-7.058,55.465,7.439c1.818.243,2.376-.282,2.465-.384l2.372-4.176c.174-.308.3-.535.411-.693l-.014-.007c.061-.116.126-.23.2-.341l-59.362-3.94C411.249,158.042,410.736,158.746,410.2,159.463ZM400.123,163l3.7.736c.549-.635,1.377-1.64,1.9-2.278l-5.6-.751Zm-134.269-1.543c.534.649,1.249,1.523,1.789,2.147l3.792-.756v-2.17ZM400.123,158.2l7.454.974c.494-.642,1.143-1.616,1.6-2.233l-9.052-.6ZM262.4,156.944c.473.643,1.1,1.5,1.571,2.112l7.46-.983v-1.727Zm-67.594,1.511a17.92,17.92,0,0,0,4.755-.009l57.94-3.847c-.515-.774-1.016-1.551-1.5-2.322H190.219c.39.631.858,1.472,1.343,2.343.369.662.74,1.329,1.075,1.9A3.49,3.49,0,0,0,194.81,158.456ZM413.627,154.6l57.907,3.843a18.008,18.008,0,0,0,4.785.01,3.467,3.467,0,0,0,2.157-1.913l2.417-4.245.01-.018H415.126C414.644,153.049,414.141,153.827,413.627,154.6Zm-13.5-.741,10.741.666c.481-.7,1.2-1.805,1.655-2.5h-12.4Zm-141.065-1.838c.457.7,1.156,1.775,1.635,2.474l10.743-.667v-1.807Zm228.979-9.508-63.258,0c-4,0-6.29,3.978-6.386,4.148-.489.913-1.015,1.853-1.567,2.8h68.219c1.541-.1,1.682-.336,2.026-.9l2.27-3.773a2.766,2.766,0,0,0,.389-1.222.768.768,0,0,0-.117-.439C489.328,142.658,488.777,142.542,488.037,142.514Zm-135.893,6.951h61.412c.833-1.378,1.629-2.77,2.367-4.142a12.209,12.209,0,0,1,2.225-2.808H361.155a9,9,0,0,0-6.633,2.407A9.192,9.192,0,0,0,352.143,149.465Zm-94.567,0h61.408a9.222,9.222,0,0,0-2.381-4.544,8.995,8.995,0,0,0-6.632-2.406H252.982a12.5,12.5,0,0,1,2.225,2.806C255.22,145.344,256.634,147.894,257.577,149.465Zm-71.461,0H254.3c-.555-.951-1.083-1.893-1.574-2.808-.016-.028-2.436-4.139-6.381-4.139l-63.276,0c-1.63.024-1.665.816-1.677,1.077a2.5,2.5,0,0,0,.4,1.21l1.89,3.142c.16.266.28.466.357.624l.014-.008C184.437,149.194,184.589,149.35,186.116,149.465Z" transform="translate(-178.062 -139.174)"/><g transform="translate(97.862 15.49)"><path d="M308.859,170.588l-.059-.159c-.593-1.677-1.125-3.051-1.65-4.259h-3.7l-.047.115c-.523,1.3-1.064,2.65-1.483,4.057l-.074.246h-1.968l5.423-12.132h.828l5.216,12.132Zm-2.256-5.8-1.288-2.972-1.268,2.972Z" transform="translate(-299.877 -158.456)"/><path d="M317.51,170.785a4.534,4.534,0,0,1-2.926-1.061l-.087-.093-.014-.169.383-1.773h.644l.071.119a2.6,2.6,0,0,0,2.389,1.582,1.97,1.97,0,0,0,1.932-2.045c0-1.211-1-1.6-2.159-2.058-1.325-.52-2.971-1.166-2.971-3.34,0-2.12,1.564-3.49,3.985-3.49a4.011,4.011,0,0,1,2.573.878l.117.107,0,.2-.544,1.632h-.651l-.059-.157a1.772,1.772,0,0,0-1.739-1.266,1.6,1.6,0,0,0-1.718,1.571c0,1.215,1.03,1.62,2.221,2.089,1.379.542,2.942,1.158,2.942,3.2A4.061,4.061,0,0,1,317.51,170.785Z" transform="translate(-302.749 -158.456)"/><path d="M327.867,170.684V160.239a29.389,29.389,0,0,0-3.212.194l-.382.043V158.76h9.149v1.725l-.389-.051a26.993,26.993,0,0,0-3.035-.193v10.444Z" transform="translate(-304.674 -158.516)"/><path d="M341.452,170.785c-3.816,0-6.38-2.467-6.38-6.139a6.031,6.031,0,0,1,6.412-6.19c3.265,0,6.559,1.838,6.559,5.944C348.043,168.219,345.394,170.785,341.452,170.785Zm.194-11.1c-2.64,0-4.28,1.975-4.28,5.155,0,2.864,1.622,4.714,4.132,4.714a3.762,3.762,0,0,0,2.847-1.215,5.6,5.6,0,0,0,1.407-3.576q0-.112-.007-.217a5.1,5.1,0,0,0-.963-3.409A4,4,0,0,0,341.647,159.688Z" transform="translate(-306.798 -158.456)"/><path d="M362.517,170.648h-.047l-.951-1.113-6.643-7.344v8.457h-1.608V158.76h1.138s5.854,6.341,7.454,8.072V158.76h1.608v11.888Z" transform="translate(-310.376 -158.516)"/><g transform="translate(59.569)"><path d="M385.608,170.648l-.029-.315c-.165-1.948-.46-5.293-.7-7.391-1.654,2.968-2.874,5.265-3.765,7.319l-.089.208H380.4l-1-2.044c-.639-1.313-2.1-4.114-2.787-5.42l-.092.787c-.3,2.547-.583,4.925-.583,6.51v.345h-1.911l.066-.4c.425-2.633,1.407-9.483,1.569-11.176l.032-.312h.951l.068.135c1.264,2.508,2.715,5.343,4.346,8.094l1.7-3.094,2.833-5.135h.858l.032.31c.5,4.765.935,8.423,1.325,11.185l.057.393Z" transform="translate(-374.026 -158.516)"/><path d="M400.8,170.588l-.058-.161c-.566-1.613-1.113-3.023-1.649-4.256h-3.7l-.037.092c-.541,1.349-1.076,2.686-1.489,4.079l-.088.247H391.82l5.427-12.132h.759l.13.148,5.152,11.985Zm-2.249-5.8-1.29-2.972-1.267,2.972Z" transform="translate(-377.525 -158.456)"/><path d="M413.465,170.648l-.126-.1-1.063-1.461c-1.258-1.629-1.733-2.244-1.9-2.509l-.025.021-1.207-1.417h-.117v5.467H406.9V158.761h3.819c2.645,0,3.986.954,3.986,2.833,0,1.594-1.15,2.817-3.1,3.325l4.584,5.729Zm-4.434-6.762c.129.006.279.01.439.01a6.594,6.594,0,0,0,1.262-.1,2.029,2.029,0,0,0,1.82-2,1.583,1.583,0,0,0-1.514-1.724,6.343,6.343,0,0,0-.938-.053c-.363,0-.743.014-1.069.028Z" transform="translate(-380.49 -158.516)"/><path d="M421.187,170.684V160.239a29.347,29.347,0,0,0-3.208.194l-.383.043V158.76h9.152v1.725l-.39-.051a26.991,26.991,0,0,0-3.035-.193v10.444Z" transform="translate(-382.593 -158.516)"/><rect width="2.038" height="11.888" transform="translate(45.25 0.244)"/><path d="M444.853,170.644l-.95-1.109-6.645-7.342v8.455h-1.605V158.76h1.136l7.453,8.073V158.76h1.609v11.89Z" transform="translate(-386.144 -158.516)"/></g></g></svg>