<svg xmlns="http://www.w3.org/2000/svg" width="231.988" height="315" viewBox="0 0 231.988 315"><g transform="translate(-141.066 -85.039)"><path d="M141.066,116.53v5.952L257.058,102.75l116,19.748v-5.967l-116-21.475L141.066,116.53Z" transform="translate(0 -2.596)" fill="#fff"/><path d="M373.054,125.113l-116-19.719L141.066,125.113l.291,19.463s58.286-25.3,115.7-25.3,115.7,25.3,115.7,25.3l.292-19.461Z" transform="translate(0 -5.275)" fill="#d9000d"/><path d="M257.157,123.087c-72.47,0-115.711,25.625-115.711,25.625l.877,58.361c0,26.789,8.755,140.77,114.834,202.827,106.136-62.057,114.834-176,114.834-202.834l.877-58.354s-43.214-25.625-115.711-25.625Z" transform="translate(-0.099 -9.861)" fill="#161615"/><path d="M370.037,154.926s-37.7-24.01-111.356-24.01-111.353,24.01-111.353,24.01l1.16,54.169c0,21.222,4.059,134.912,110.193,196.61C364.818,344.016,368.876,230.323,368.876,209.1l1.162-54.17Z" transform="translate(-1.623 -11.89)" fill="#ffe800"/><path d="M261.674,402.3s-.469-.613-.913-.169a2.571,2.571,0,0,1-2.052,1.079,5.272,5.272,0,0,1-2.051-.479c-.576-.253-1.381-.636-1.381-.636a14.036,14.036,0,0,0-3.877-.853c-1.776-.049-4.681.7-6.084,2.222a7.574,7.574,0,0,0-1.765,3.1s-.468,2.771.336,4.043a10.57,10.57,0,0,0,3.637,3.841c1.957,1.2,2.808,1.644,2.808,1.644l3.4,1.56,3.144,1.188s4.536,1.357,5.088,4.789-1.511,7.875-7.777,8.283c-6.167.4-9.169-2.593-10.129-4.514a4.952,4.952,0,0,1-.41-3.552l.265-.528.239-.12a3.221,3.221,0,0,0,1.9.527,2.761,2.761,0,0,0,2.3-3.1,2.646,2.646,0,0,0-2.809-2.183c-.792.072-4.321.983-4.393,6.121s4.61,7.873,4.61,7.873a13.848,13.848,0,0,0,7.056,1.9,19.684,19.684,0,0,0,6.842-1.656s5.546-2.762,5.69-8.786-3.673-8.139-3.673-8.139a20.264,20.264,0,0,0-2.617-1.535c-1.248-.576-4.249-2.017-4.249-2.017l-3.048-1.391-1.848-1.034-1.032-.7s-2.472-1.943-1.153-4.056,5.136-1.32,5.136-1.32a15.933,15.933,0,0,1,5.258,2.28,16.307,16.307,0,0,1,3.649,3.649l.96,1.562.121.217.816-.29a44.429,44.429,0,0,1-1.512-5.041c-.242-1.487-.48-3.778-.48-3.778Z" transform="translate(-25.938 -81.95)" fill="#161615"/><path d="M317.178,422.5a2.9,2.9,0,0,0,1.921.913,2.624,2.624,0,0,0,2.665-2.762,2.762,2.762,0,0,0-2.042-2.52,4.081,4.081,0,0,0-4.535,2.376,8.615,8.615,0,0,0-.672,5.786,10.25,10.25,0,0,0,5.111,6.649,11.71,11.71,0,0,0,9.146.648,17.067,17.067,0,0,0,6.628-4.632,25.967,25.967,0,0,0,4.535-7.562l1.079-2.689,1.3.024a4.734,4.734,0,0,0,3.073-.862,9.671,9.671,0,0,0,2.065-2.448l.169-.431-.817-.386a3.681,3.681,0,0,1-2.234,1.345,12.03,12.03,0,0,1-2.639-.1l1.248-3.335s1.439-2.906,1.848-3.579,2.087-2.831,2.087-2.831a39.389,39.389,0,0,0,6.793-.72,34.54,34.54,0,0,0,5.4-1.535l4.13-1.7,1.008-.554-.313-.815a45.663,45.663,0,0,1-9.215,1.945,32.409,32.409,0,0,1-8.955-.048l-6.242-.962a28.126,28.126,0,0,0-3.36-.335,31.873,31.873,0,0,0-4.441.527,14.868,14.868,0,0,0-4.321,1.68c-1.342,1.01-4.535,3.362-3.073,6.962s7.442,1.68,8.283-.985c-.024.024.335-.863.335-.863l.1-.479-.5-.193-.6.7s-2.231,1.873-3.962.673a2.039,2.039,0,0,1-.383-3.073,5.9,5.9,0,0,1,3.337-1.824,15.369,15.369,0,0,1,5.591.31l3.649.673s2.017.383,2.114.383.745.1.745.1l-1.272,1.417a17.835,17.835,0,0,0-3.146,4.345c-1.3,2.569-1.9,3.911-1.9,3.911l-.12.193a7.994,7.994,0,0,0-2.663.816,6.353,6.353,0,0,0-1.706,1.584l-.479.865.648.552a3.94,3.94,0,0,1,1.656-1.079,2.424,2.424,0,0,1,1.61.118s-1.321,3.266-1.945,4.442a23.037,23.037,0,0,1-3.169,4.945c-1.487,1.607-2.569,3-5.976,3.48a7.53,7.53,0,0,1-6.7-2.783,7.16,7.16,0,0,1-1.465-3.914,5.214,5.214,0,0,1,.576-2.352Z" transform="translate(-44.894 -81.829)" fill="#161615"/><path d="M141.066,114.038V107.08l116-22.04,115.988,22.04v6.961l-116-21.461L141.066,114.038Z" fill="#007d2e"/><path d="M293.561,143.174a9.091,9.091,0,0,1-.417,1.987c-.27.67-1.008,1.135-.956,1.587a2.121,2.121,0,0,0,1.258,1.36,7.244,7.244,0,0,0,1.759.853c.687.173,1.557.682,1.81.1s-.13-1.3-.549-1.988c-.723-1.191-1.09-1.475-2.165-3.12-.229-.351-.412-.732-.739-.781Z" transform="translate(-39.165 -15.067)" fill="#161615"/><path d="M263.943,271.553c.07-.2,5.084,3.326,8.074,6.289,1.519,1.506,2.811,3.465,3.248,3.183.624-.757-.4-2.225-2.123-3.96a51.254,51.254,0,0,0-6.382-5.305c-2.357-1.583-6.695-5.372-6.695-5.372l-3.6-3.037-3.991-3.687-3.025-3.358s-2.342-2.87-2.718-3.42-1.477-2.325-2.394-3.831c-.819-1.346-2.4-3.446-2.547-3.626-.852-1.027-2.8-.615-5.064-1.948-2.757-1.625-3.414-3.1-3.414-3.1a2.087,2.087,0,0,0-.209-.339,2.056,2.056,0,0,0-.314-.267l-1.434-1.008-.827-.547a6.885,6.885,0,0,0-1.416-.855c-.79-.344-2.55-1.37-2.55-1.37l-3.147-2s-1.232-1-1.644-1.322a12.367,12.367,0,0,0-1.193-.767,3.211,3.211,0,0,0-.641-.262c-.152-.007-.8-.067-.8-.067a1.289,1.289,0,0,0-1.222.567c-.617.723-.471.341.532,4.426.4,1.614.359,7.3.785,9.024a29.846,29.846,0,0,0,2.263,5.434,8.249,8.249,0,0,1,.267,1.578,9.368,9.368,0,0,0,.041,1.641c.477,2.931,4.77,1,5.72,5.03a15.368,15.368,0,0,1-.558,7.934s-.929,1.968-2.23,2.277-3.317-2.567-4.781-4.9a41.553,41.553,0,0,1-3-6.259,8.575,8.575,0,0,0-1.012-1.865c-.643-1.027-1.165-.843-1.887-2.47s-.082-2.286-.41-3.7c-.183-.793-.359-.873-.6-2s-.559-4.691-.559-4.691l-.456-3.324s-.161-1.512-.369-2.46a54.2,54.2,0,0,1-.975-6.533l-.131-1.316L210.5,228.6a5.157,5.157,0,0,1,.119-1.329,5.034,5.034,0,0,1,.494-1.234s.664-1.125.779-1.395a23.574,23.574,0,0,1,1.483-1.863,17.709,17.709,0,0,1,1.883-1.312,4.237,4.237,0,0,1,2.227-.664,17.2,17.2,0,0,1,2.383.225c2.077.259,6.353,1.39,7.421,1.674a15.732,15.732,0,0,1,3.167,1.185c2.37,1.293,3.091.748,1.2-.731A33.283,33.283,0,0,1,229,220.779a27.074,27.074,0,0,1-2.187-2.057c-.642-.739-2.49-3.458-2.49-3.458l-1.145-1.7s-.619-.687-.719-.742-.412-.3-.412-.3a6.989,6.989,0,0,1-1.55-.107c-.79-.154-1.159.953-1.159.953a32.825,32.825,0,0,1-3.445,5.141,66.571,66.571,0,0,0-5.867,7.01c-1.443,2.339-1.131,4.9-1.876,6.084a8.061,8.061,0,0,0-.912,1.4c-.729,1.835,1.92,2.851,1.313,4.888-.962,3.226-8.537,6.429-9.543,5.893-1.039-.552-.189-4.92.164-6.339a17.885,17.885,0,0,1,1.515-3.616,2.948,2.948,0,0,0,.43-1.019c.081-.419.111-1.362.161-1.891a11.725,11.725,0,0,1,.264-1.359,15.4,15.4,0,0,1,.7-1.631c.668-1.459,3.132-4.858,4.9-8.1,1.159-2.117,1.646-3.4,2.811-5.511,1.076-1.949,2.908-4.913,2.908-4.913s.783-1.515,1.149-2.085,1.14-1.669,1.865-2.739a12.674,12.674,0,0,1,1.87-2.765,5.662,5.662,0,0,1,2.362-1.463,6.364,6.364,0,0,1,4.162.2,9.683,9.683,0,0,1,3.82,2.082,14.953,14.953,0,0,1,1.854,1.879l.516.756.317.193,1,.633,2.265,1.5s5.376,3.658,5.668,3.849,1.248.988,1.445,1.048,1.627-1.492,4.435-3.432c3.255-2.249,4.407-2.078,5.474-2.665a9.054,9.054,0,0,0,2.341-1.912c1.263-1.263,1.268-1.935,2.7-3.7a16.735,16.735,0,0,1,2.786-2.743s.2-.2,2.766-3.094a27.988,27.988,0,0,0,3.7-5.084l1.41-2.818s2.039-4.379,2.691-6.115a8.224,8.224,0,0,0,.656-2.316,2.12,2.12,0,0,0-.4-1.334c-.5-.882-1.03-.481-2-.278-1.875.393-3.006-.093-4.893-.417-1.729-.3-2.633-.8-4.364-1.1a14.908,14.908,0,0,0-4.536-.41,6.314,6.314,0,0,0-1.069.223,8.83,8.83,0,0,0-2,.833,5.108,5.108,0,0,1-2.364.554,3.746,3.746,0,0,1-1.661-.2,2.721,2.721,0,0,1-.981-.578,2.462,2.462,0,0,1-.462-.526c-.019-.19-.076-.177.1-.479a.708.708,0,0,1,.4-.353l.806-.2,1.232-.328c.1-.025,1.183-.378,1.661-.528a7.4,7.4,0,0,0,1.007-.427s.293-.462.176-.728c-.133-.3-.781-.329-.781-.329s-.9.328-1.006.351-1.534.479-1.534.479-1.133.253-2.013.454a18.247,18.247,0,0,1-2.14.3l-.379-.1s-.436-.287-.5-.579c-.061-.267-.1-.473-.152-.779a6.432,6.432,0,0,1-.15-2.894,5.211,5.211,0,0,1,.413-1.137,6.253,6.253,0,0,1,.492-.9l.7-1.133,1.308-1.937a5.03,5.03,0,0,1,1.306-1,5.185,5.185,0,0,1,2.369-.716,15.984,15.984,0,0,0,2.617-.427,10.057,10.057,0,0,0,2.491-.907s3.481-1.282,5.607-2.323c2.227-1.09,3.206-2.26,5.514-3.161a18.272,18.272,0,0,1,2.543-.815.472.472,0,0,0,.227-.3c.1-.373-.473-.545-.859-.5-.341.035-1.136.4-1.316.006-.142-.31.727-.489.727-.489s.406-.193.416-.423c.013-.339-.593-.119-.858-.149a10.944,10.944,0,0,1-2.393-.627,12.457,12.457,0,0,0-2.841-.658,9.421,9.421,0,0,0-2.592.329c-.629.15-.652-.462-.4-.579,1.774-.83,1.813-.9,3.061-.952a7.071,7.071,0,0,1,1.747.171,3.359,3.359,0,0,0,1.825-.371c.351-.35-1.128-.329-1.823-.609-.64-.258-1.625-.322-1.6-.749s.506-.2.841-.278a9.474,9.474,0,0,1,1.111-.155c.785-.11.856-.178,2.012-.279a9.7,9.7,0,0,1,2.82.378s1.737.779,2.591,1.183a9.267,9.267,0,0,0,1.889.6,3.58,3.58,0,0,0,2.138-.4c.93-.579.41-.953.072-1.479a2.37,2.37,0,0,1-.12-2.571c.525-1.19.8-2.563.954-2.692.181-.151.923.906,1.4,1.35,1.694,1.584,3.955,2.372,6.067,5.7.169.266.965-.158,3.432.22s4.605,3.019,5.157,3.648a1.775,1.775,0,0,0,1.285.606l1.181.15,4.3.075a7.473,7.473,0,0,1,3.071.077c.785.295,3.41,2.047,2.217,2.714-.833.468-1.622-.554-2.376-.607a5.4,5.4,0,0,0-2.08.309c-1.665.42-5.249,1.5-3.95,1.938.1.036.275.074.275.074l.656.1a21.919,21.919,0,0,1,2.518.737,23.023,23.023,0,0,1,3.439,1.974,8.05,8.05,0,0,0,1.911,1.119,15.655,15.655,0,0,0,2.014.132,8.278,8.278,0,0,1,2.523.831c1.381.667,1.889,1.475,3.135,2.369.619.445,1.137.517,1.6,1.122a1.094,1.094,0,0,1,.244.365c.168.556-.909.227-1.482.133a5.176,5.176,0,0,1-1.477-.685,8.306,8.306,0,0,0-2.2-1.022,6.756,6.756,0,0,0-1.788.009c-.67.03-1.044.137-1.714.146a11.561,11.561,0,0,1-2.943-.322c-1.272-.264-1.9-.765-3.172-1.026-1.416-.291-3.947-1.513-3.7-.3.123.59,1.47,1.085,1.47,1.085s.9.5,1.784.882a3.91,3.91,0,0,1,1.362.956l.6.453s.629.856,1.434,1.811a3.1,3.1,0,0,0,2.215.931,15.276,15.276,0,0,1,2.694.378,14.074,14.074,0,0,1,3.723,1.509,13.663,13.663,0,0,1,2.265,1.964c.829.982.352,1.485.25,1.585s-.074.051-.176.1-1.133-1.232-1.133-1.232l-.73-.63a7.091,7.091,0,0,0-1.66-.805c-.93-.3-1.231-.1-1.231-.1a14.785,14.785,0,0,1-3.7.5,4.833,4.833,0,0,1-2.617-.73l-1.082-.729s-1.634-1.531-1.687-.8c-.036.49.716,1.034.716,1.034l.878.867c.653.643.922.967,1.679,1.646a2.129,2.129,0,0,0,1.231.679s.4.1.554.127.427.1.427.1.253.1,1.434.577a11.391,11.391,0,0,1,2.443,1.511.683.683,0,0,0,.3.126,5.727,5.727,0,0,1,.629.227c.1.024.4.024,1.082.125s.429.528.429.528l-.127.177-.554.376a7.234,7.234,0,0,1-1.234.227,3.636,3.636,0,0,1-1.208-.252l-1.533-.579s-1.537-.4-1.862-.453-1.711-.327-1.937-.378a7.19,7.19,0,0,1-1.109-.4c-.176-.1-.527-.176-1.357-.58a12.69,12.69,0,0,0-2.191-1.207,2.416,2.416,0,0,0-2.444.147c-1.333.925,2.017,1.073,3.7,1.9,2.454,1.211,3.844,2.107,4.429,3.418A5.039,5.039,0,0,0,304,184a10.014,10.014,0,0,1,2.514,1.785c.424.5.487.907.908,1.4.95,1.11,2.8,1.055,3.167,2,.345.885-1.492.489-2.458.4-1.725-.167-2.14-1.746-3.752-2.387-.916-.364-1.5-.368-2.431-.679-1.69-.563-2.487-1.3-4.191-1.821-1.019-.314-2.887-1.674-2.666-.629a2.441,2.441,0,0,0,.277.6c.075.15.5.7.5.7a8.913,8.913,0,0,0,.831.956,22.484,22.484,0,0,0,2.918,1.887,12.07,12.07,0,0,1,2.919,2.491,9,9,0,0,1,.679,1.133c.236.524.075.679.429,1.408a3.522,3.522,0,0,0,.981,1.309c1.14,1.11,2.338.886,3.8,1.485.393.162.427.225.856.679s-.077.653-.077.653a10.549,10.549,0,0,1-2.668.327,7.917,7.917,0,0,1-3.3-1.182,6.827,6.827,0,0,1-2.162-1.913c-.128-.075-.453-.428-.706-.6a6.946,6.946,0,0,0-1.485-.479c-.583-.161-.928-.187-1.508-.35-.8-.226-1.636-.58-2.015-.706a2.5,2.5,0,0,0-1.879.093c-1.263.747,1.954,1.256,2.962,2.323.513.542.72.922,1.207,1.485a5.731,5.731,0,0,0,.984,1.081,5.909,5.909,0,0,0,.879.479s.781.352,1.911.981a10.9,10.9,0,0,1,2.468,2.391l.805,1.233.479.705.125.327.176.4a5.068,5.068,0,0,0,1.008,1.007c.426.25.351.479.351.479s-.05.15-.351.327-.453.026-.882-.1-.7-.53-1.082-.831-.785-1.06-1.487-1.485a7.118,7.118,0,0,0-1.708-.6c-.3-.1-1.058-.579-1.359-.706s-1.082-.478-1.082-.478a14.8,14.8,0,0,0-2.345-1.08c-.832-.227-.3.277-.3.277a6.886,6.886,0,0,0,1.468,1.636c.928.618,2.234,1.162,1.805,1.658-.284.331-.673.212-1.106.161a3.52,3.52,0,0,1-1.533-.914,10.455,10.455,0,0,0-1.914-.731c-1.559-.5-.981.353-.629.806a2.935,2.935,0,0,0,.831.7l1.056.479.479.15s.427.075,1.837.4a5.419,5.419,0,0,1,2.188,1.007,22.206,22.206,0,0,0,1.812,1.485,5.7,5.7,0,0,0,2.694,1.056c.578.074.551.478.551.478a2.112,2.112,0,0,1,.051.5.3.3,0,0,1-.277.227c-.125,0-.176.05-.325.126a4.986,4.986,0,0,1-.755.176,16.3,16.3,0,0,1-2.819-.353,7.878,7.878,0,0,1-2.417-1.207,16.089,16.089,0,0,0-2.039-.932,5.347,5.347,0,0,0-2.138-.1c-.125.05-.554.125-1.284.327s.176.478.176.478l.53.05,1.258.1a12.343,12.343,0,0,1,2.391.554,7.039,7.039,0,0,1,2.54,1.938,8.8,8.8,0,0,0,1.538,1.208l.578.378.3.225.075.2a1.945,1.945,0,0,1-.075.227.588.588,0,0,1-.227.226,3.388,3.388,0,0,0-.4-.05c-.125,0-.95-.436-1.562-.706a8.717,8.717,0,0,0-1.634-.7,5.015,5.015,0,0,0-1.536-.151c-.173.049-1.46.227-2.441.3a14.158,14.158,0,0,1-3.007-.053c-1.665-.2-3.866-1.511-4.146-1.144-.576.762,1.186.986,2.032,1.476a19.088,19.088,0,0,0,3.183,1.281,14.564,14.564,0,0,1,2.34.73c1.885.877,2.465,2.173,3.977,3.547a4.413,4.413,0,0,0,2.643,1.259c.967.14.955.024,2.49-.279s2.474-1.765,2.918-1.231c.087.105.05.2.027.35a2.566,2.566,0,0,1-.152.429,4.431,4.431,0,0,1-.453.527,8.759,8.759,0,0,1-1.887,1.082,9.521,9.521,0,0,1-3.624.554,11.791,11.791,0,0,1-4.1-1.359l-1.735-.73s-.8-.379-1.335-.578a33.741,33.741,0,0,0-3.824-.883c-.919-.245-1.511-.5-2.34-.677s-.369.155-.277.277a3.687,3.687,0,0,0,1.559,1c.874.423,1.491.336,2.39.706a15.452,15.452,0,0,1,2.417,1.333,7.622,7.622,0,0,1,1.482,1.308l1.841,1.561s.427.353.477.5a1.959,1.959,0,0,1,.15,1.133c-.1.6-.6.176-.6.176l-.477-.3-.479-.453-.781-.63a8.677,8.677,0,0,0-1.785-1.182,8.3,8.3,0,0,0-2.492-.73s-1.208-.177-1.156.2.325.4,1.282.654a4.93,4.93,0,0,1,1.586.729,12.731,12.731,0,0,1,1.687,1.536,4.333,4.333,0,0,1,.906,1.585,7.209,7.209,0,0,0,1.258,1.536c.9.881,1.383.577,1.333,1.005a.585.585,0,0,1-.453.5s-.227-.025-.325-.025a3.159,3.159,0,0,1-.579-.225,13.891,13.891,0,0,1-1.21-.756s-1.484-1.207-1.66-1.333-1.585-1.183-1.585-1.183-.832-.529-1.434-.831a16.265,16.265,0,0,0-1.862-.754,6.607,6.607,0,0,0-1.282-.2,9.72,9.72,0,0,1-1.612-.376,11.392,11.392,0,0,1-2.205-1.442,6.137,6.137,0,0,0-1.2-.327,7.9,7.9,0,0,0-.67,2.684c-.41,4.083.677,6.8,2.357,10.54,2.443,5.445,9.22,12.213,9.22,12.213a28.028,28.028,0,0,1,2.431,1.54,80.883,80.883,0,0,1,8.355,6.8,82.952,82.952,0,0,1,5.928,7.063,38.516,38.516,0,0,1,2.858,4.658,39.568,39.568,0,0,1,2,5.97,4.246,4.246,0,0,0,.15.762.584.584,0,0,0,.366.289l1.183.041a14.5,14.5,0,0,0,2.352-.32,27.8,27.8,0,0,0,4.374-1.911,21.232,21.232,0,0,0,3.044-2.135s.313-.267,1.937-2.073a18.7,18.7,0,0,0,3.063-5.533,25.838,25.838,0,0,0,.949-6.314,39.669,39.669,0,0,0-.212-6.881s-.607-4.931-.979-6.606-1.255-4.4-1.255-4.4-.619-2.439-.819-3.982-.236-4.037-.236-4.037a28.411,28.411,0,0,1,.506-4.364,19.037,19.037,0,0,1,2.237-5.662,20.633,20.633,0,0,1,2.352-3.192,17.7,17.7,0,0,1,4.4-4c1.492-1.075,3.432-2.8,4.058-2.4.692.443-.685,1.319-1.142,1.771a28.609,28.609,0,0,0-5.157,6.316,20.512,20.512,0,0,0-2.508,6.208,15.352,15.352,0,0,0-.176,4.324c.053.657.415.417.415.417a61.594,61.594,0,0,0,5.827-5.324c2.222-2.483,4.2-6.908,4.97-6.948.52-.027.766,1.159.648,1.7a12.842,12.842,0,0,1-1.4,4.1,23.655,23.655,0,0,1-2.829,4.134,19.562,19.562,0,0,0-2.863,4.579,8.353,8.353,0,0,0-.6,5.7s.173,1.513.853,1.491c1.14-.038,3.632-3.188,5.261-5.756,1.2-1.9,1.639-4.075,2.431-5.219.709-1.019,1.342,1.649,1.039,3.223-.359,1.865-1.282,3.546-3.309,6.182a8.641,8.641,0,0,0-1.918,5.042,32.85,32.85,0,0,0-.373,3.563,30.976,30.976,0,0,0,.539,6.137,44.62,44.62,0,0,1,.745,5.435c.119,2.345.039,7.705-2.154,11.867a31.324,31.324,0,0,1-2.757,3.981,25.288,25.288,0,0,1-2.627,2.348,35.176,35.176,0,0,1-4.029,2.2s-1.964.687-2.241.752a.94.94,0,0,0-.465.31s.188.384.258.538.629,1.508.629,1.508a29.062,29.062,0,0,1,.81,3.454,6.568,6.568,0,0,1-.258,3.034c-.212,1.118-.7.6-.824,2.8-.109,1.935.776,2.9.612,5.075-.07.95-1.154-1.191-1.663-2.1-1.108-1.994-.843-5.03-.868-5.787a10.025,10.025,0,0,0-.366-2.554,8.692,8.692,0,0,0-1.431-2.947c-.581-.752-1.193-1.176-1.4-1.106s-.217.47-.224.672a4.228,4.228,0,0,0,.492,1.075c.094.154.829,1.489.829,1.489a14.3,14.3,0,0,1,.448,3.01,17.283,17.283,0,0,1-.482,4.441,19.184,19.184,0,0,1-4.635,8.652,13.37,13.37,0,0,0-2.591,3.586c-1.108,2.227-.159,3.208-.564,3.482-.427.29-1.3-1.277-1.542-2.345a3.812,3.812,0,0,1,.294-2.564,20.273,20.273,0,0,1,1.273-2.6l1.337-2.27a28.269,28.269,0,0,0,2.1-5.29,12.088,12.088,0,0,0-.062-4.687s-.073-.807-.627-.778a1.5,1.5,0,0,0-1.181,1.118c-.463,1.214.188,1-.511,3.027-.552,1.6-.7,1.391-.988,2.337a10.459,10.459,0,0,0-.509,3.01c.027.708-.368.417-.368.417a6.768,6.768,0,0,1-.665-2.842,16.181,16.181,0,0,1,.127-2.183,30.61,30.61,0,0,1,.711-3.465,13.043,13.043,0,0,0,.475-3.962c-.136-1.892-.8-2.244-.8-2.244s-.166-.258-.9-.21-.7,1.362-.7,1.362-.221,1.868-.513,3.031a20.119,20.119,0,0,1-3.789,7.623,34.009,34.009,0,0,1-5.232,5.607c-1.169,1.017-4.76,3.634-4.76,3.634l-4.2,2.8a12.057,12.057,0,0,0-2.441,3.567,7.8,7.8,0,0,0-.282,5.227,8.22,8.22,0,0,0,1.427,3.1,6.887,6.887,0,0,1,1.2,2.384,9.578,9.578,0,0,1,.073,1.665c.031.562.108.875.1,1.436-.017.892.144,1.523-.359,2.258a4.253,4.253,0,0,1-1.393,1.031s-1.14.509-1.819.921c-7.162,4.328-9.7,7.124-13.739,11.941-1.282,1.533-.342,1.444-1.716,3.268-.822,1.092-2.735,1.085-3.439,2.384-.954,1.771,2.181,3.52-1.448,5.09-4.666,2.017-12.7.568-12.862-.058-.439-1.74,1.567-3.735,2.279-4.514,3.274-3.579,6.2-3.67,7.265-6.627.227-.629.144-1.171,2.745-3.1,1.829-1.359,9.143-6.853,12.331-10.529,1.092-1.258,2.034-2.089,2.508-3.458a2.114,2.114,0,0,0-.477-2.231l-1.308-2.135-2.511-4.495s-1.051-2.379-1.631-3.76-1.687-5.095-1.687-5.095a31.629,31.629,0,0,1-.942-5.5c-.137-4.473-.227-5.377,1.316-9.958,1.605-4.757,3.458-5.374,5.553-11.837.448-1.386.427-3.838-.289-3.718-.685.113-.432,2.039-.8,3.317-1.436,4.986-4.1,7-5.816,11.973a23.649,23.649,0,0,0-1.419,8.877,21.335,21.335,0,0,0,.449,5.121,19.307,19.307,0,0,0,.9,3.224c.267.887.988,2.55.988,2.55a24.035,24.035,0,0,1,1.348,3.762,4.2,4.2,0,0,1,.207,1.362c-.062.923-.362,1.123-.807,1.959-.547,1.029-.21,1.644-1.981,2.025-1.567.335-4.777-.7-4.777-.7s-13.2-4.01-21.626-2.858c-1.671.229-2.562.834-4.249.81-1.521-.021-2.3-1.216-3.826-.764-.317.094-.413.311-.686.5-2.239,1.557-.533,4.141-6.409,2.8-3.614-.829-7.988-3.031-7.224-4.427,1.01-1.843,2.374-2.147,5.222-3.311,3.052-1.248,7.632-.9,8.531-.962,1.1-.08,2.689-.853,4.653-.887,3.4-.058,4.015.339,4.015.339l5.781.509,11.064.144s1.978-.154,2.771-.306,1.422-1.716,1.848-2.454a2.458,2.458,0,0,0-.01-1.836l-.336-.513-1.047-1.7-1.946-3.284-2.162-4.3s-1.411-3-2.166-4.977a37.686,37.686,0,0,1-1.682-5.084,26.8,26.8,0,0,1-.9-5.454,19.733,19.733,0,0,1,.523-6.8Z" transform="translate(-14.888 -15.069)" fill="#161615"/><path d="M380.813,305.232c2.179-3.049,2.343-5.5,2.653-9.232a38.486,38.486,0,0,0-.467-7.191l-.147-.316s-.41-.529-.663.167c.039.623.116,1.116.116,1.116s.752,6.3-1.005,11.42c-1.689,4.918-5.347,6.931-6.6,8.924-1.677,2.671,4.335-2.408,6.109-4.89Z" transform="translate(-60.475 -52.679)" fill="#fff"/><path d="M350.182,324.132a1.351,1.351,0,0,0-.971,1.212c-.019.945.231,1.759.21,2.888-.026,1.441-1.356,3.118-.5,3.66,1.47.93,2.733-5.632,2.285-6.6s-.882-1.171-1.025-1.157Z" transform="translate(-53.795 -61.965)" fill="#fff"/><path d="M328.086,385.5a1.064,1.064,0,0,0-.8.056.761.761,0,0,0-.491.75s-.1.583.323.645,1.135-.978,1.128-1.1a1.154,1.154,0,0,0-.157-.352Z" transform="translate(-48.131 -77.856)" fill="#fff"/><path d="M307.654,397.534s-.161.161-.022.275.335-.036.335-.036,2.673-2.085,4.254-3.559c1.682-1.569,4.078-4.266,4.078-4.266a.286.286,0,0,0-.024-.383c-.185-.176-.65.094-1.019.275a3.515,3.515,0,0,0-.776.566c-.246.207-1.027,1.017-1.027,1.017l-2.068,2.007-1.287,1.213-1.263,1.21-.535.6s-.14.234-.176.292-.179.245-.179.245-.186.186-.186.232-.062.106-.064.166a.473.473,0,0,1-.041.142Z" transform="translate(-43.154 -78.908)" fill="#fff"/><path d="M300.776,404.391a.679.679,0,0,0-.74,0,3.535,3.535,0,0,0-.978.935c-.039.072-.29.41-.121.7s.747-.139.831-.149a8.453,8.453,0,0,0,.834-.605.662.662,0,0,0,.173-.879Z" transform="translate(-40.9 -82.738)" fill="#fff"/><path d="M288.483,416.35s-.372-.713-.873-.419a2.983,2.983,0,0,0-1.219,1.019c-.079.109-.571.74-.66.906s-.571,1.09.418,1.15c1.706.1.592-1,1.177-1.417.475-.339,1.363-.253,1.375-.6a1.115,1.115,0,0,0-.217-.642Z" transform="translate(-37.441 -85.738)" fill="#fff"/><path d="M248.262,368.248s-1.026.248-1.1.613.6.716.71.733.347.284,1.025-.174.651-.853.651-.853.4-.463-1.284-.319Z" transform="translate(-27.495 -73.391)" fill="#fff"/><path d="M270.555,367.409s-.012-.373-.742-.33-.892.176-.911.289.035.3.7.35.933,0,.956-.309Z" transform="translate(-33.13 -73.094)" fill="#fff"/><path d="M288.431,367.909a11.756,11.756,0,0,0-1.714.074,27.363,27.363,0,0,1-3.75-.082c-2.045-.133-5.215-.653-5.215-.653s-.4-.082-.554.173.385.8.865.955a10.533,10.533,0,0,0,4.5.691c.981.015,1.533-.082,2.511-.15a12.718,12.718,0,0,0,3.171-.25c.352-.094.692-.754.186-.759Z" transform="translate(-35.274 -73.136)" fill="#fff"/><path d="M303.738,364.537s-.264-.308-.812-.041a2.368,2.368,0,0,0-.879.867s-.253.4.287.333a3.334,3.334,0,0,0,1.15-.379c.135-.079.53-.448.255-.781Z" transform="translate(-41.705 -72.397)" fill="#fff"/><path d="M293.7,215.324a40.063,40.063,0,0,0,6.431-8.148c1.595-2.766,2.282-9.206.916-7.6-.619.728-1.176,4.132-2.307,6.622a60.283,60.283,0,0,1-5.3,8.506s-1.007,1.58.259.617Z" transform="translate(-39.392 -29.619)" fill="#fff"/><path d="M273.628,232.41a.719.719,0,0,0-.217.81c.183.5,1.039-.177,1.039-.177a12.905,12.905,0,0,1,3.537-.727,21.246,21.246,0,0,1,4.344.47s1.2.331,1.4.407.853.4.961.435.639.648.991.331-2.183-2.619-4.78-2.971a11.143,11.143,0,0,0-7.144,1.269l-.135.153Z" transform="translate(-34.287 -37.795)" fill="#fff"/><path d="M249.716,250.578c.311.255,1.758-2.481,2.962-4.218.882-1.273,2.494-3.4,2.494-3.4s.72-.974-.509-.43a7.327,7.327,0,0,0-2.836,3.18c-.819,1.629-2.42,4.615-2.111,4.87Z" transform="translate(-28.149 -40.773)" fill="#fff"/><path d="M236.274,237.344a2.66,2.66,0,0,0,.935,2.391c1.247,1.334,1.574,2.437,2.368,1.642.22-.219-.776-2.022-1.289-2.515s-.887-.908-.887-.908l-.321-.267-.419-.226-.234-.1a.142.142,0,0,0-.154-.02Z" transform="translate(-24.666 -39.468)" fill="#fff"/><path d="M230.236,223.6s-1.346.253-1.679.907,1.552.253,1.552.253,1.251.073,1.282-.407-.161-.536-1.154-.753Z" transform="translate(-22.664 -35.91)" fill="#fff"/><path d="M201.595,271.528c-.68-.207-.8,1.155-.886,1.588s.3,1.315.462,1.309a2.336,2.336,0,0,0,.738-1.285c.031-.42.3-1.425-.313-1.613Z" transform="translate(-15.454 -48.326)" fill="#fff"/><path d="M231.447,307s-1.225-.971-1.414-.586,1.012,2.1,1.012,2.1a.766.766,0,0,0,.931.3.715.715,0,0,0,.356-.879s-.378-.8-.885-.935Z" transform="translate(-23.052 -57.349)" fill="#fff"/><path d="M219.2,268.614a.371.371,0,0,0-.435.3,14.327,14.327,0,0,0-.187,1.737,13.528,13.528,0,0,0,.152,2.139,7.391,7.391,0,0,0,1.342,3.911s.269.59.593.559.25-.419.25-.419-1.029-4.094-1.068-4.512c-.12-1.354-.11-3.017-.11-3.017l-.011-.252a.485.485,0,0,0-.527-.446Z" transform="translate(-20.085 -47.575)" fill="#fff"/><path d="M221.061,251.765s-.568-.114-1.093.984-.417,1.545-.371,1.6.465.036,1.128-.982.516-1.4.516-1.4-.037-.205-.181-.2Z" transform="translate(-20.342 -43.209)" fill="#fff"/><path d="M239.8,265.671s.69,1.017-.626.781-4.078-2.41-5.2-3-2.939-.782-2.174-1.458c.136-.12.171-.233.4-.244a4.244,4.244,0,0,1,1.025.316c.047.027,1.991.822,2.062.85a18.807,18.807,0,0,1,1.937.951c.779.46,2.037,1.339,2.037,1.339l.537.459Z" transform="translate(-23.468 -45.798)" fill="#fff"/><path d="M284.829,302.259c.358,1.136-4.143-2.378-6.554-4.234-6.393-4.921-14.216-15.006-13.24-15.895.81-.739,3.657,4.206,8.355,9.287,5.02,5.429,11.228,10.174,11.439,10.841Z" transform="translate(-32.107 -51.06)" fill="#fff"/><path d="M316.5,302.4c-1.595,1.35-2.631,4.3-1.082,4.822.978.333.65-2.217,1.522-3.229.75-.867,1.208-.735,2.454-1.614,2.114-1.489-.916-1.651-2.894.022Z" transform="translate(-44.988 -56.021)" fill="#fff"/><path d="M306.045,259.842c-.952-.153-.925,1.3-.781,2.342a22.483,22.483,0,0,0,5.483,11.552c1.685,2.042,6.314,5.687,6.856,5.1.2-.21-4.767-3.706-7.692-8.279a18.813,18.813,0,0,1-3.085-8.71c-.033-.335.048-1.872-.781-2.008Z" transform="translate(-42.535 -45.3)" fill="#fff"/><path d="M280.162,166.479a33.538,33.538,0,0,1-5.7,2.128s-.169.357.295.319a15.45,15.45,0,0,0,5.932-1.363,7.68,7.68,0,0,0,2.858-2.7s.663-1.223-.583-.213a23.782,23.782,0,0,1-2.8,1.826Z" transform="translate(-34.563 -20.53)" fill="#fff"/><path d="M315.594,156.51a1.821,1.821,0,0,0-1.183.14c-.477.3-.335.539-.335.539a3.73,3.73,0,0,0,1.26.655c.525.084,1.656.573,1.608.19a3.311,3.311,0,0,0-.894-1.276,1.185,1.185,0,0,0-.456-.247Z" transform="translate(-44.833 -18.512)" fill="#fff"/><path d="M300.15,184.753c.12.251,2.234-.329,3.046-.783.643-.36.887-1.559.887-1.559s.178-1.165-.1-.717c-1.207,1.975-3.955,2.809-3.836,3.06Z" transform="translate(-41.228 -25.023)" fill="#fff"/><path d="M297.7,178.379c.856-1.635-2.346,1.7-3.975,2.567-.991.527-2.608,1.221-2.608,1.221s-.431.539.166.49,2.123.477,3.346-.482a23.943,23.943,0,0,0,1.579-2.094,7.615,7.615,0,0,0,1.493-1.7Z" transform="translate(-38.848 -24.075)" fill="#fff"/><path d="M299.393,187.134c.06.272,3.655.174,4.549-.086.706-.206,1.085-1.456,1.085-1.456s.436-1.1.067-.721c-1.619,1.653-5.762,1.992-5.7,2.263Z" transform="translate(-41.033 -25.853)" fill="#fff"/><path d="M220.118,232.265s-.548-.192-1.219.822-3.692,5.587-3.152,6.267c.632.8,3.244-4.1,4.044-5.011a1.979,1.979,0,0,0,.479-1.854s-.009-.209-.151-.224Z" transform="translate(-19.338 -38.152)" fill="#fff"/><path d="M310.344,342.77c-.318,1.52.07,4.632.581,5.244,1.285,1.542.507-2.408.678-3.8a8.311,8.311,0,0,1,.961-3.123c1.14-2.483-1.542-1.564-2.22,1.675Z" transform="translate(-43.841 -65.994)" fill="#fff"/><path d="M294.533,165.038a4.406,4.406,0,0,0-1.775.454,2.1,2.1,0,0,0-.984,1.03,1.2,1.2,0,0,0-.047.678c.228.522,1.3-.271,2.056-.007a2.572,2.572,0,0,1,1.363.948c.4.49,1.125,1.188,1.574.793s.285-1.385.285-1.385a5.135,5.135,0,0,0-1.222-2.08,2.241,2.241,0,0,0-1.248-.431Z" transform="translate(-39.037 -20.733)" fill="#fff"/><path d="M273.066,180.344a.575.575,0,0,0-.424.762c.131.671.494.564.494.564s1.151-.488,1.078-1.185-1.148-.141-1.148-.141Z" transform="translate(-34.095 -24.645)" fill="#fff"/><path d="M261.715,175.536a1.35,1.35,0,0,0-1.027.771,9.2,9.2,0,0,0-.671,1.517s-.2.991.153,1.3.737-.64,1.245-1c.311-.221.5-.323.815-.54.429-.3,1.135.08,1.082-.8a1.486,1.486,0,0,0-1.6-1.248Z" transform="translate(-30.813 -23.453)" fill="#fff"/><path d="M297.056,162.849s-1.371-.2-1.321.332c.049.49.747.2,1.2.4a3.273,3.273,0,0,1,1.073.594c.25.229.227.679.537.684.444.007.35-.17.35-.17a3.719,3.719,0,0,0-.908-1.521,1.675,1.675,0,0,0-.928-.315Z" transform="translate(-40.085 -20.156)" fill="#fff"/><path d="M318.081,170.213a7.59,7.59,0,0,1-.321,1.007s-.385,1.519,1.148.956a8.254,8.254,0,0,0,1.839-.859c1.1-.536,1.062-.243,1.868-.2a2.715,2.715,0,0,0,.851-.058c.342-.073.2-.487-.573-.693a13.468,13.468,0,0,0-3.042-.177c-.689-.007-1.568-.713-1.768.03Z" transform="translate(-45.782 -21.986)" fill="#fff"/><path d="M318.577,162.737a1.818,1.818,0,0,0-1.183.141c-.477.3-.335.538-.335.538a3.753,3.753,0,0,0,1.26.656c.525.084,1.656.572,1.608.19a3.309,3.309,0,0,0-.894-1.276,1.169,1.169,0,0,0-.456-.247Z" transform="translate(-45.606 -20.126)" fill="#fff"/><path d="M322.19,176.965a2.195,2.195,0,0,0-1.27.138c-.516.286-.362.513-.362.513a4.148,4.148,0,0,0,1.348.615c.562.076,1.774.536,1.725.173s-.725-1.025-.957-1.2a1.3,1.3,0,0,0-.484-.233Z" transform="translate(-46.513 -23.814)" fill="#fff"/><path d="M322.46,182.126a2.137,2.137,0,0,0-1.338.154c-.539.326-.378.586-.378.586a4.254,4.254,0,0,0,1.419.71c.595.09,1.872.619,1.819.2a3.6,3.6,0,0,0-1.01-1.385,1.331,1.331,0,0,0-.513-.269Z" transform="translate(-46.561 -25.15)" fill="#fff"/><path d="M322.9,187.157a2.233,2.233,0,0,0-1.451.173c-.585.366-.41.659-.41.659a4.552,4.552,0,0,0,1.542.8c.644.1,2.031.7,1.974.233a4.07,4.07,0,0,0-1.1-1.563,1.425,1.425,0,0,0-.556-.3Z" transform="translate(-46.636 -26.452)" fill="#fff"/><path d="M322.783,193.383a2.232,2.232,0,0,0-1.451.171c-.586.367-.41.661-.41.661a4.567,4.567,0,0,0,1.542.8c.644.1,2.032.7,1.974.233a4.115,4.115,0,0,0-1.1-1.565,1.424,1.424,0,0,0-.556-.3Z" transform="translate(-46.606 -28.066)" fill="#fff"/><path d="M321.927,205.509a2.229,2.229,0,0,0-1.451.172c-.586.367-.41.66-.41.66a4.552,4.552,0,0,0,1.542.8c.643.1,2.031.7,1.974.233a4.087,4.087,0,0,0-1.1-1.564,1.417,1.417,0,0,0-.557-.3Z" transform="translate(-46.385 -31.208)" fill="#fff"/><path d="M322.617,199.432a2.578,2.578,0,0,0-1.677.2c-.677.424-.475.763-.475.763a5.3,5.3,0,0,0,1.783.928c.747.118,2.35.811,2.283.268a4.7,4.7,0,0,0-1.27-1.807,1.642,1.642,0,0,0-.644-.351Z" transform="translate(-46.487 -29.631)" fill="#fff"/><path d="M321.471,210.986a1.84,1.84,0,0,0-1.2.141c-.482.3-.337.543-.337.543a3.76,3.76,0,0,0,1.27.662c.53.084,1.673.578,1.625.192a3.352,3.352,0,0,0-.9-1.288,1.165,1.165,0,0,0-.458-.25Z" transform="translate(-46.352 -32.63)" fill="#fff"/><path d="M320.658,216.25a1.521,1.521,0,0,0-.99.118c-.4.25-.282.45-.282.45a3.119,3.119,0,0,0,1.056.549c.439.07,1.388.479,1.347.159a2.78,2.78,0,0,0-.75-1.068.99.99,0,0,0-.381-.208Z" transform="translate(-46.21 -33.996)" fill="#fff"/><path d="M319.577,221.041a1.377,1.377,0,0,0-.894.107c-.361.225-.253.406-.253.406a2.834,2.834,0,0,0,.95.495c.4.063,1.253.432,1.217.144a2.512,2.512,0,0,0-.677-.963.884.884,0,0,0-.342-.188Z" transform="translate(-45.963 -35.239)" fill="#fff"/><path d="M318.435,224.967a1.375,1.375,0,0,0-.894.106c-.362.225-.253.406-.253.406a2.841,2.841,0,0,0,.949.495c.4.062,1.253.432,1.217.142a2.517,2.517,0,0,0-.677-.962.864.864,0,0,0-.342-.187Z" transform="translate(-45.667 -36.256)" fill="#fff"/><path d="M317.151,229.528a1.113,1.113,0,0,0-.723.085c-.289.182-.2.328-.2.328a2.284,2.284,0,0,0,.766.4c.321.051,1.013.348.984.116a2.032,2.032,0,0,0-.547-.778.7.7,0,0,0-.277-.151Z" transform="translate(-45.392 -37.44)" fill="#fff"/><path d="M315.557,233.8a.959.959,0,0,0-.622.074c-.25.156-.176.282-.176.282a1.976,1.976,0,0,0,.66.344c.277.044.873.3.846.1a1.736,1.736,0,0,0-.47-.671.616.616,0,0,0-.239-.13Z" transform="translate(-45.013 -38.547)" fill="#fff"/><path d="M313.865,237.851a.949.949,0,0,0-.622.073c-.25.156-.176.282-.176.282a1.963,1.963,0,0,0,.663.345c.277.044.87.3.846.1a1.76,1.76,0,0,0-.473-.67.585.585,0,0,0-.239-.13Z" transform="translate(-44.574 -39.598)" fill="#fff"/><path d="M204.373,258.025s-.629,1.216-.318,1.882,1.154-1.067,1.154-1.067.873-1.722.513-2.042-.567.578-1.35,1.227Z" transform="translate(-16.302 -44.497)" fill="#fff"/></g></svg>