<svg xmlns="http://www.w3.org/2000/svg" width="315" height="278.1" viewBox="0 0 315 278.1"><path d="M206.385,147.23A139.017,139.017,0,0,0,67.343,286.289c0,2.744.094,5.4.2,8.053H49.388a2.136,2.136,0,0,0-1.941,1.334c-.3.712-16.422,29.069-16.833,29.781-.3.715-.3,1.123.516,1.123H73.259A139.066,139.066,0,1,0,206.385,147.23ZM107.027,326.58h37.034L126.2,357.487A110.918,110.918,0,0,1,107.027,326.58Zm99.358,66.92a106.837,106.837,0,0,1-74.88-30.508h30.1s86.5-152.4,86.8-153.01c.422-.621.211-1.032-.4-1.032h-35.3c-.712,0-.818.214-1.014.516s-48.768,84.876-48.768,84.876H99.475c-.211-2.656-.3-5.309-.3-8.053a107.128,107.128,0,0,1,184.234-74.472c-8.463,14.282-46.42,78.746-51.515,88.133-2.958-6.836-16.633-5.5-23.672-5.608-3.063,5.1-17.44,32.238-17.44,32.238s7.948-.105,15.092,0c6.945.105,7.762,7.341,5,11.934s-14.086,24.478-14.086,24.478h36.424S277.9,284.955,303.3,240.581a105.738,105.738,0,0,1,10.3,45.708A107.265,107.265,0,0,1,206.385,393.5Z" transform="translate(-30.429 -147.23)" fill="#e4022d" fill-rule="evenodd"/></svg>